<?xml version="1.0"?><svg width="780.5" height="797.5" xmlns="http://www.w3.org/2000/svg">
 <title>Post It Note Green</title>
 <g>
  <title>Layer 1</title>
  <path id="path2" fill="#7fff00" d="m370.5,71.25l0.5,-0.25l2.25,8q2.25,8 4,11.5l1.75,3.5l-1.75,1l-1.75,1l0,2.5l0,2.5l0.25,0.25q0.25,0.25 3.75,-1l3.5,-1.25l5,2.75q5,2.75 8.5,4.25q3.5,1.5 15,0q11.5,-1.5 15.75,-5.25q4.25,-3.75 6.75,-8.25q2.5,-4.5 3.5,-8q1,-3.5 0.75,-10l-0.25,-6.5l1,0l1,0l2.5,-0.25l2.5,-0.25l3.5,-1.25l3.5,-1.25l89.5,-2.75q89.5,-2.75 123.5,-4.25l34,-1.5l0.25,0.25q0.25,0.25 5.75,105.25q5.5,105 10,209.5q4.5,104.5 10,220.5q5.5,116 5,118.5l-0.5,2.5l-0.25,0.25q-0.25,0.25 -293.75,15.75q-293.5,15.5 -325.5,17l-32,1.5l-0.75,-0.75q-0.75,-0.75 -7.75,-106.25q-7,-105.5 -13.5,-209.5q-6.5,-104 -11.5,-221q-5,-117 -4.5,-119l0.5,-2l125.25,-6.75q125.25,-6.75 164.75,-8.75q39.5,-2 40,-2.25z"/>
  <path id="path4" fill="#000000" d="m402.5,40.75l8.5,-0.75l0.25,1.5l0.25,1.5l0.25,1l0.25,1l-6.75,5q-6.75,5 -7.5,6.75q-0.75,1.75 -2.5,3q-1.75,1.25 -3.25,3.75q-1.5,2.5 -1.5,5.5l0,3l3.75,5.75q3.75,5.75 4.75,6.25l1,0.5l1.5,0.5q1.5,0.5 8.5,0.75l7,0.25l2.25,-3q2.25,-3 4.5,-4l2.25,-1l2.25,-3.5q2.25,-3.5 4.5,-5.25q2.25,-1.75 4.25,-2l2,-0.25l0.5,0l0.5,0l0,0.5l0,0.5l-1,0l-1,0l0.25,6.5q0.25,6.5 -0.75,10q-1,3.5 -3.5,8q-2.5,4.5 -6.75,8.25q-4.25,3.75 -15.75,5.25q-11.5,1.5 -15,0q-3.5,-1.5 -8.5,-4.25l-5,-2.75l-2,-2.5l-2,-2.5l-1.75,-3.5q-1.75,-3.5 -4,-11.5l-2.25,-8l1.75,-7q1.75,-7 5,-11.25q3.25,-4.25 9.75,-7.75q6.5,-3.5 15,-4.25z"/>
  <path id="path6" fill="#7fff00" d="m405.25,49l6.75,-5l0.75,3.5l0.75,3.5l5.75,5.25q5.75,5.25 8.75,6.75q3,1.5 7,1.75l4,0.25l0,0.5l0,0.5l-2,0.25q-2,0.25 -4.25,2q-2.25,1.75 -4.5,5.25l-2.25,3.5l-2.25,1q-2.25,1 -4.5,4l-2.25,3l-7,-0.25q-7,-0.25 -8.5,-0.75l-1.5,-0.5l-1,-0.5q-1,-0.5 -4.75,-6.25l-3.75,-5.75l0,-3q0,-3 1.5,-5.5q1.5,-2.5 3.25,-3.75q1.75,-1.25 2.5,-3q0.75,-1.75 7.5,-6.75z"/>
  <path id="path8" fill="#000000" d="m454,63.75l-2,1.25l-3.5,1.25l-3.5,1.25l-2.5,0.25l-2.5,0.25l0,-0.5l0,-0.5l-0.5,0l-0.5,0l-4,-0.75q-4,-0.75 -7,-2.25q-3,-1.5 -8.75,-6.75l-5.75,-5.25l-0.75,-3.5l-0.75,-3.5l-0.25,-1l-0.25,-1l-0.25,-1.5l-0.25,-1.5l1.75,-8q1.75,-8 5,-11.75q3.25,-3.75 5.25,-4.75l2,-1l1.5,-0.5q1.5,-0.5 11.5,1q10,1.5 15.25,5.75q5.25,4.25 7.75,8.75q2.5,4.5 3,6q0.5,1.5 0.5,8.5l0,7l-4.25,5.75q-4.25,5.75 -6.25,7z"/>
  <path id="path10" fill="black" d="m377.25,95l1.75,-1l2,2.5l2,2.5l-3.5,1.25q-3.5,1.25 -3.75,1l-0.25,-0.25l0,-2.5l0,-2.5l1.75,-1z"/>
 </g>

</svg>